<svg width="121" height="41" viewBox="0 0 121 41" fill="none" xmlns="http://www.w3.org/2000/svg">
<path d="M40.8852 20.1132H39.2577L43.965 7.29315H45.5675L50.2749 20.1132H48.6473L44.8164 9.32132H44.7162L40.8852 20.1132ZM41.4862 15.1053H48.0464V16.4825H41.4862V15.1053Z" fill="#51B2F4"/>
<path d="M55.7021 20.3135C54.9009 20.3135 54.1935 20.1111 53.5801 19.7063C52.9666 19.2973 52.4867 18.7214 52.1403 17.9786C51.7939 17.2316 51.6207 16.349 51.6207 15.3307C51.6207 14.3208 51.7939 13.4444 52.1403 12.7016C52.4867 11.9588 52.9687 11.385 53.5863 10.9802C54.2039 10.5754 54.9176 10.373 55.7271 10.373C56.3531 10.373 56.8476 10.4773 57.2107 10.6859C57.578 10.8904 57.8576 11.1241 58.0495 11.387C58.2457 11.6458 58.398 11.8586 58.5065 12.0255H58.6317V7.29315H60.109V20.1132H58.6818V18.6359H58.5065C58.398 18.8111 58.2436 19.0323 58.0433 19.2994C57.8429 19.5623 57.5571 19.7981 57.1857 20.0067C56.8143 20.2112 56.3197 20.3135 55.7021 20.3135ZM55.9024 18.9864C56.495 18.9864 56.9958 18.832 57.4048 18.5232C57.8137 18.2102 58.1246 17.7783 58.3375 17.2274C58.5503 16.6724 58.6567 16.0318 58.6567 15.3057C58.6567 14.5879 58.5524 13.9598 58.3437 13.4215C58.1351 12.879 57.8263 12.4575 57.4173 12.157C57.0083 11.8524 56.5034 11.7 55.9024 11.7C55.2764 11.7 54.7548 11.8607 54.3375 12.182C53.9243 12.4992 53.6134 12.9311 53.4048 13.4778C53.2003 14.0203 53.098 14.6296 53.098 15.3057C53.098 15.9901 53.2024 16.6119 53.411 17.1711C53.6239 17.7261 53.9369 18.1685 54.35 18.4981C54.7673 18.8237 55.2848 18.9864 55.9024 18.9864Z" fill="#51B2F4"/>
<path d="M62.7318 23.7188V10.4982H65.3609V12.1132H65.4799C65.5967 11.8544 65.7657 11.5915 65.9869 11.3244C66.2123 11.0532 66.5044 10.8278 66.8633 10.6484C67.2263 10.4648 67.677 10.373 68.2154 10.373C68.9165 10.373 69.5633 10.5566 70.1559 10.9238C70.7485 11.2869 71.2222 11.8357 71.5769 12.5701C71.9316 13.3004 72.109 14.2165 72.109 15.3182C72.109 16.3907 71.9358 17.2963 71.5894 18.0349C71.2472 18.7694 70.7798 19.3265 70.1872 19.7063C69.5988 20.0819 68.9394 20.2697 68.2091 20.2697C67.6917 20.2697 67.2514 20.1841 66.8883 20.013C66.5294 19.8419 66.2352 19.627 66.0057 19.3683C65.7762 19.1053 65.6009 18.8403 65.4799 18.5733H65.3985V23.7188H62.7318ZM65.3422 15.3057C65.3422 15.8774 65.4214 16.3761 65.58 16.8017C65.7386 17.2274 65.9681 17.5592 66.2686 17.797C66.5691 18.0307 66.9342 18.1476 67.3641 18.1476C67.7981 18.1476 68.1653 18.0287 68.4658 17.7908C68.7663 17.5487 68.9937 17.2149 69.1481 16.7892C69.3067 16.3594 69.386 15.8649 69.386 15.3057C69.386 14.7506 69.3088 14.2624 69.1544 13.8409C69 13.4194 68.7725 13.0897 68.472 12.8518C68.1716 12.614 67.8022 12.495 67.3641 12.495C66.9301 12.495 66.5628 12.6098 66.2623 12.8393C65.9661 13.0688 65.7386 13.3943 65.58 13.8158C65.4214 14.2373 65.3422 14.7339 65.3422 15.3057Z" fill="#F78DDC"/>
<path d="M78.2686 20.301C77.2795 20.301 76.4282 20.1006 75.7146 19.7C75.0052 19.2952 74.4585 18.7235 74.0745 17.9848C73.6906 17.242 73.4986 16.3636 73.4986 15.3495C73.4986 14.3604 73.6906 13.4924 74.0745 12.7454C74.4585 11.9984 74.9989 11.4163 75.6958 10.9989C76.3969 10.5816 77.219 10.373 78.1622 10.373C78.7965 10.373 79.387 10.4752 79.9337 10.6797C80.4845 10.88 80.9645 11.1826 81.3734 11.5874C81.7866 11.9922 82.1079 12.5013 82.3374 13.1147C82.567 13.724 82.6817 14.4376 82.6817 15.2556V15.988H74.5628V14.3354H80.1716C80.1716 13.9515 80.0881 13.6113 79.9212 13.3151C79.7542 13.0188 79.5226 12.7871 79.2263 12.6202C78.9342 12.4491 78.5941 12.3636 78.206 12.3636C77.8012 12.3636 77.4423 12.4575 77.1293 12.6453C76.8205 12.8289 76.5784 13.0772 76.4032 13.3902C76.2279 13.699 76.1382 14.0433 76.134 14.423V15.9942C76.134 16.47 76.2216 16.881 76.3969 17.2274C76.5764 17.5738 76.8288 17.8409 77.1543 18.0287C77.4799 18.2165 77.8659 18.3103 78.3124 18.3103C78.6087 18.3103 78.88 18.2686 79.1262 18.1852C79.3724 18.1017 79.5831 17.9765 79.7584 17.8096C79.9337 17.6426 80.0672 17.4382 80.159 17.1961L82.6254 17.3589C82.5002 17.9515 82.2435 18.4689 81.8554 18.9113C81.4715 19.3495 80.9749 19.6917 80.3656 19.9379C79.7605 20.1799 79.0615 20.301 78.2686 20.301Z" fill="#F78DDC"/>
<path d="M88.7662 20.301C87.7939 20.301 86.953 20.0944 86.2435 19.6812C85.5383 19.2639 84.9937 18.6839 84.6097 17.941C84.2258 17.194 84.0338 16.3281 84.0338 15.3432C84.0338 14.35 84.2258 13.482 84.6097 12.7392C84.9937 11.9922 85.5383 11.4121 86.2435 10.9989C86.953 10.5816 87.7939 10.373 88.7662 10.373C89.7386 10.373 90.5774 10.5816 91.2826 10.9989C91.9921 11.4121 92.5388 11.9922 92.9227 12.7392C93.3066 13.482 93.4986 14.35 93.4986 15.3432C93.4986 16.3281 93.3066 17.194 92.9227 17.941C92.5388 18.6839 91.9921 19.2639 91.2826 19.6812C90.5774 20.0944 89.7386 20.301 88.7662 20.301ZM88.7787 18.2352C89.2211 18.2352 89.5904 18.11 89.8867 17.8596C90.183 17.6051 90.4063 17.2587 90.5565 16.8205C90.7109 16.3823 90.7881 15.8836 90.7881 15.3244C90.7881 14.7652 90.7109 14.2665 90.5565 13.8284C90.4063 13.3902 90.183 13.0438 89.8867 12.7892C89.5904 12.5347 89.2211 12.4074 88.7787 12.4074C88.3322 12.4074 87.9566 12.5347 87.652 12.7892C87.3515 13.0438 87.1241 13.3902 86.9697 13.8284C86.8194 14.2665 86.7443 14.7652 86.7443 15.3244C86.7443 15.8836 86.8194 16.3823 86.9697 16.8205C87.1241 17.2587 87.3515 17.6051 87.652 17.8596C87.9566 18.11 88.3322 18.2352 88.7787 18.2352Z" fill="#F78DDC"/>
<path d="M95.2326 23.7188V10.4982H97.8617V12.1132H97.9806C98.0975 11.8544 98.2665 11.5915 98.4876 11.3244C98.713 11.0532 99.0051 10.8278 99.364 10.6484C99.7271 10.4648 100.178 10.373 100.716 10.373C101.417 10.373 102.064 10.5566 102.657 10.9238C103.249 11.2869 103.723 11.8357 104.078 12.5701C104.432 13.3004 104.61 14.2165 104.61 15.3182C104.61 16.3907 104.437 17.2963 104.09 18.0349C103.748 18.7694 103.281 19.3265 102.688 19.7063C102.1 20.0819 101.44 20.2697 100.71 20.2697C100.192 20.2697 99.7521 20.1841 99.3891 20.013C99.0302 19.8419 98.736 19.627 98.5064 19.3683C98.2769 19.1053 98.1016 18.8403 97.9806 18.5733H97.8992V23.7188H95.2326ZM97.8429 15.3057C97.8429 15.8774 97.9222 16.3761 98.0808 16.8017C98.2393 17.2274 98.4689 17.5592 98.7693 17.797C99.0698 18.0307 99.435 18.1476 99.8648 18.1476C100.299 18.1476 100.666 18.0287 100.967 17.7908C101.267 17.5487 101.494 17.2149 101.649 16.7892C101.807 16.3594 101.887 15.8649 101.887 15.3057C101.887 14.7506 101.809 14.2624 101.655 13.8409C101.501 13.4194 101.273 13.0897 100.973 12.8518C100.672 12.614 100.303 12.495 99.8648 12.495C99.4308 12.495 99.0635 12.6098 98.7631 12.8393C98.4668 13.0688 98.2393 13.3943 98.0808 13.8158C97.9222 14.2373 97.8429 14.7339 97.8429 15.3057Z" fill="#F78DDC"/>
<path d="M109.054 7.29315V20.1132H106.387V7.29315H109.054Z" fill="#F78DDC"/>
<path d="M115.572 20.301C114.583 20.301 113.732 20.1006 113.018 19.7C112.309 19.2952 111.762 18.7235 111.378 17.9848C110.994 17.242 110.802 16.3636 110.802 15.3495C110.802 14.3604 110.994 13.4924 111.378 12.7454C111.762 11.9984 112.302 11.4163 112.999 10.9989C113.7 10.5816 114.523 10.373 115.466 10.373C116.1 10.373 116.691 10.4752 117.237 10.6797C117.788 10.88 118.268 11.1826 118.677 11.5874C119.09 11.9922 119.411 12.5013 119.641 13.1147C119.871 13.724 119.985 14.4376 119.985 15.2556V15.988H111.866V14.3354H117.475C117.475 13.9515 117.392 13.6113 117.225 13.3151C117.058 13.0188 116.826 12.7871 116.53 12.6202C116.238 12.4491 115.898 12.3636 115.51 12.3636C115.105 12.3636 114.746 12.4575 114.433 12.6453C114.124 12.8289 113.882 13.0772 113.707 13.3902C113.531 13.699 113.442 14.0433 113.438 14.423V15.9942C113.438 16.47 113.525 16.881 113.7 17.2274C113.88 17.5738 114.132 17.8409 114.458 18.0287C114.783 18.2165 115.169 18.3103 115.616 18.3103C115.912 18.3103 116.184 18.2686 116.43 18.1852C116.676 18.1017 116.887 17.9765 117.062 17.8096C117.237 17.6426 117.371 17.4382 117.463 17.1961L119.929 17.3589C119.804 17.9515 119.547 18.4689 119.159 18.9113C118.775 19.3495 118.278 19.6917 117.669 19.9379C117.064 20.1799 116.365 20.301 115.572 20.301Z" fill="#F78DDC"/>
<path d="M39.5004 27.7563V26.9238H44.4612V27.7563H42.4612V33.3338H41.4972V27.7563H39.5004Z" fill="white"/>
<path d="M52.8332 33.3338H51.8066L54.1133 26.9238H55.2307L57.5374 33.3338H56.5108L54.6986 28.0881H54.6485L52.8332 33.3338ZM53.0054 30.8236H56.3355V31.6374H53.0054V30.8236Z" fill="white"/>
<path d="M69.9916 28.9488C69.931 28.759 69.8497 28.5889 69.7474 28.4387C69.6473 28.2863 69.5273 28.157 69.3875 28.0506C69.2477 27.9421 69.0881 27.8596 68.9086 27.8033C68.7313 27.747 68.5362 27.7188 68.3233 27.7188C67.9623 27.7188 67.6368 27.8116 67.3468 27.9973C67.0568 28.1831 66.8272 28.4554 66.6582 28.8142C66.4913 29.1711 66.4078 29.6082 66.4078 30.1257C66.4078 30.6452 66.4923 31.0845 66.6614 31.4434C66.8304 31.8022 67.062 32.0745 67.3562 32.2603C67.6504 32.446 67.9853 32.5388 68.3609 32.5388C68.7093 32.5388 69.0129 32.4679 69.2717 32.326C69.5325 32.1841 69.7339 31.9838 69.8758 31.725C70.0197 31.4642 70.0917 31.1575 70.0917 30.8049L70.3421 30.8518H68.508V30.0537H71.0275V30.7829C71.0275 31.3213 70.9128 31.7887 70.6833 32.1851C70.4558 32.5795 70.1407 32.8841 69.738 33.0991C69.3374 33.314 68.8784 33.4214 68.3609 33.4214C67.7808 33.4214 67.2717 33.2879 66.8335 33.0208C66.3974 32.7537 66.0573 32.375 65.8132 31.8847C65.569 31.3922 65.447 30.808 65.447 30.1319C65.447 29.6207 65.5179 29.1617 65.6598 28.7548C65.8017 28.3479 66.001 28.0026 66.2576 27.7188C66.5163 27.4329 66.8199 27.2149 67.1684 27.0646C67.5189 26.9123 67.9018 26.8362 68.3171 26.8362C68.6634 26.8362 68.9858 26.8873 69.2842 26.9895C69.5847 27.0918 69.8517 27.2368 70.0854 27.4246C70.3212 27.6124 70.5163 27.8356 70.6707 28.0944C70.8251 28.351 70.9295 28.6358 70.9837 28.9488H69.9916Z" fill="white"/>
<path d="M79.7469 33.3338V26.9238H80.7141V32.5013H83.6186V33.3338H79.7469Z" fill="white"/>
<path d="M93.1807 26.9238V33.3338H92.2136V26.9238H93.1807Z" fill="white"/>
<path d="M107.255 26.9238V33.3338H106.366L103.107 28.6327H103.048V33.3338H102.081V26.9238H102.976L106.237 31.6311H106.297V26.9238H107.255Z" fill="white"/>
<path d="M116.157 33.3338V26.9238H120.176V27.7563H117.124V29.7094H119.966V30.5388H117.124V32.5013H120.213V33.3338H116.157Z" fill="white"/>
<path d="M26.8489 14.8699C28.0944 15.3529 29.2918 15.9518 30.4253 16.6588C30.8546 16.9317 31.2696 17.2264 31.6689 17.5416C31.7263 17.5925 31.7802 17.6473 31.8301 17.7056C31.8895 17.7546 31.9515 17.8002 32.016 17.8423C32.0552 17.9007 32.1011 17.9543 32.1526 18.0022C32.7649 18.5761 33.3183 19.1966 33.6969 19.9564C34.1595 20.8635 34.3421 21.8876 34.2216 22.8986C34.2066 23.0353 34.2585 23.1583 34.2121 23.2868C34.1188 23.8971 33.9417 24.4917 33.6859 25.0538C33.4124 25.6815 33.0893 26.2866 32.7198 26.8631C32.6927 26.9002 32.6625 26.935 32.6296 26.967C32.1445 27.6983 31.6147 28.3989 31.043 29.0647C30.4813 29.7247 29.8786 30.3493 29.2883 30.9779C29.1445 31.1301 28.9921 31.2738 28.8318 31.4084C28.7703 31.4612 28.7203 31.526 28.6848 31.5988C28.6493 31.6717 28.6291 31.7511 28.6255 31.832C28.511 33.0859 28.2893 34.3277 27.9627 35.5437C27.6798 36.5317 27.3122 37.4924 26.9787 38.4641C26.853 38.8303 26.7327 39.1966 26.6098 39.5573C26.5906 39.6147 26.5865 39.7227 26.495 39.7036C26.4034 39.6844 26.4389 39.5888 26.4376 39.5218C26.4376 39.1583 26.4444 38.7934 26.4376 38.4285C26.4298 38.4054 26.4182 38.3837 26.4034 38.3643L26.3952 38.1238C26.3364 37.9598 26.4089 37.7849 26.3542 37.6195V37.4706C26.2968 37.3558 26.3624 37.2259 26.3146 37.1084L26.3077 36.9581C26.2503 36.8583 26.3146 36.7449 26.2681 36.6438L26.2599 36.4962C26.2162 36.4115 26.2476 36.3185 26.238 36.2311C26.2216 36.0944 26.2134 35.9578 26.2052 35.8279C26.1773 35.7315 26.1621 35.6318 26.1601 35.5314C26.1519 35.5109 26.1404 35.492 26.126 35.4753C26.0727 35.2274 26.0398 34.9756 26.0276 34.7224C25.9757 34.6568 26.0276 34.5693 25.988 34.5023C25.8923 33.9639 25.8035 33.4255 25.701 32.8898C25.3101 30.8167 24.8715 28.7545 24.2866 26.7251C23.9162 25.4405 23.498 24.1723 23.002 22.9301C22.4225 21.4801 21.7174 20.0999 20.743 18.8699C20.6334 18.7506 20.5329 18.6231 20.4423 18.4887C20.2159 18.2203 19.9662 17.9724 19.6962 17.748L19.3709 17.4651C19.3034 17.3919 19.2245 17.33 19.1373 17.282C19.0164 17.1699 18.8829 17.0723 18.7396 16.9909C17.7748 16.3923 16.7539 16.078 15.6156 16.3937C15.4942 16.4119 15.379 16.4587 15.2794 16.5303C14.8173 16.7204 14.3908 16.9875 14.018 17.3202C13.772 17.435 13.608 17.6496 13.4372 17.8436C12.9845 18.3556 12.5877 18.9146 12.2538 19.5109C11.9804 20.0725 11.6784 20.6219 11.4242 21.1945C11.1222 21.8696 10.8585 22.5611 10.5783 23.2444C10.3405 23.8279 10.1123 24.4169 9.88136 25.0046C9.65177 25.4282 9.52605 25.8915 9.37025 26.3424C8.88885 27.7437 8.48105 29.1692 8.14853 30.613C7.88614 31.7405 7.67159 32.8775 7.49256 34.0227C7.34042 34.9565 7.21378 35.8876 7.11265 36.816C7.11474 36.8401 7.11474 36.8643 7.11265 36.8884C7.08057 37.0254 7.06679 37.166 7.07165 37.3066C7.07002 37.3296 7.06636 37.3525 7.06072 37.3749C7.0325 37.5097 7.02012 37.6472 7.02382 37.7849C7.02205 37.8095 7.01747 37.8338 7.01016 37.8573C6.98848 38.0338 6.97571 38.2112 6.97189 38.3889C6.91313 38.8577 6.90083 39.3291 6.86257 39.7979C6.86581 39.8326 6.86174 39.8676 6.85064 39.9007C6.83953 39.9338 6.82162 39.9642 6.79807 39.9899C6.77451 40.0157 6.74583 40.0362 6.71387 40.0502C6.68191 40.0642 6.64737 40.0713 6.61248 40.0712C6.21979 40.1063 5.824 40.0758 5.44132 39.981C5.37982 39.9687 5.31969 39.9646 5.25819 39.9578C5.07912 39.9217 4.90702 39.8571 4.74846 39.7664C4.62136 39.6653 4.46284 39.6298 4.32755 39.5368C4.29202 39.489 4.23325 39.4767 4.19089 39.4466C3.42833 38.9779 2.8858 38.3001 2.41432 37.5553C1.66134 36.3636 1.25136 35.0408 0.926111 33.6838C0.767645 33.0345 0.644472 32.3771 0.557133 31.7145C0.5462 31.6202 0.583098 31.5191 0.510669 31.4412C0.469097 31.289 0.451123 31.1314 0.457372 30.9738C0.416374 30.9027 0.445072 30.8249 0.435506 30.7497C0.409541 30.639 0.420474 30.5242 0.397242 30.4135C0.372866 30.2841 0.358701 30.1529 0.354878 30.0213C0.290648 29.8969 0.361711 29.748 0.278349 29.625V29.4378C0.223685 29.3366 0.286548 29.2218 0.238718 29.1193V28.9677C0.178588 28.831 0.251017 28.6943 0.196354 28.5577V28.4087C0.136224 28.2611 0.20592 28.1012 0.155356 27.9536V27.7541C0.128497 27.5595 0.120716 27.3627 0.132124 27.1665C0.0788271 26.7565 0.132124 26.3465 0.103426 25.9366C0.0976009 25.91 0.0864428 25.8849 0.0706276 25.8628C0.0296299 25.133 0.0405626 24.4033 0.0706276 23.6762C0.0938288 23.5312 0.100705 23.3841 0.0911264 23.2376C0.0806345 23.0583 0.0879589 22.8783 0.112992 22.7005V22.2782C0.169022 22.1416 0.0965927 21.9967 0.155356 21.8682V21.6824C0.215486 21.5457 0.138957 21.3995 0.199087 21.2656V21.0305C0.279715 20.7422 0.264683 20.4429 0.319346 20.1518C0.348045 20.0151 0.319346 19.8785 0.361711 19.7418C0.371277 19.597 0.435506 19.4535 0.386309 19.3045C0.591297 17.9051 0.842749 16.5139 1.36205 15.1884C1.54005 14.7276 1.7577 14.2832 2.01255 13.86C2.15625 13.6887 2.28089 13.5022 2.38426 13.3038C2.50958 13.2013 2.61836 13.0801 2.70677 12.9444C3.08158 12.5037 3.52008 12.1214 4.00777 11.8102C4.33985 11.5368 4.74026 11.3879 5.13247 11.2266C5.65553 11.0202 6.20081 10.8753 6.75734 10.7948C6.86803 10.8426 6.97463 10.7729 7.08395 10.7811H7.12768C7.15946 10.7554 7.19888 10.741 7.23974 10.7401C7.4953 10.7401 7.74538 10.665 8.0023 10.6909C8.65963 10.6704 9.31969 10.654 9.97702 10.6909C11.0669 10.7504 12.1527 10.8695 13.2295 11.0476C14.4321 11.2512 15.621 11.5109 16.8031 11.8006C17.4864 11.9659 18.1697 12.1354 18.8366 12.3336C19.442 12.5112 20.0501 12.6752 20.6528 12.8583C21.4126 13.0888 22.172 13.3198 22.9309 13.5512C23.6907 13.7849 24.4423 14.0404 25.1967 14.2891C25.5534 14.408 25.906 14.5447 26.2558 14.6841C26.3078 14.6883 26.3578 14.7062 26.4007 14.736C26.5455 14.7538 26.6863 14.8522 26.8489 14.8699Z" fill="#F68CDB"/>
<path d="M17.0654 32.1832L17.5451 32.1969C17.869 32.2188 18.1929 32.1969 18.5167 32.2078C18.5929 32.1954 18.6709 32.2024 18.7436 32.2283L19.2192 32.2393C19.5129 32.2705 19.8094 32.2654 20.102 32.2242C19.9243 31.6243 19.7494 31.0244 19.5704 30.4258C19.3968 29.8491 19.2028 29.2765 19.0483 28.6943C19.0196 28.5383 18.9516 28.3922 18.8507 28.2697C18.7498 28.1473 18.6193 28.0526 18.4716 27.9946C18.4197 27.9482 18.3459 27.9946 18.2981 27.9591C18.2503 27.9236 18.1204 27.9755 18.1013 27.8785C18.0822 27.7814 18.1874 27.765 18.238 27.7104L19.9503 26.1402L20.6554 25.4992C20.8194 25.3489 20.8591 25.3626 20.9288 25.5771C21.582 27.5888 22.2357 29.5999 22.8898 31.6106C23.6032 33.7972 24.317 35.9837 25.0313 38.1702C25.2403 38.8112 25.4412 39.4535 25.6544 40.0944C25.7364 40.3458 25.7323 40.3609 25.4754 40.3568C24.8495 40.3445 24.2222 40.3253 23.595 40.3076C23.3408 40.3007 23.0852 40.2789 22.8311 40.2871C22.7502 40.299 22.6679 40.279 22.6016 40.2313C22.5353 40.1836 22.4901 40.112 22.4757 40.0315C22.2626 39.3127 22.0466 38.5943 21.828 37.8764C21.6107 37.159 21.3907 36.4415 21.1788 35.7227C21.1447 35.6065 21.0791 35.586 20.9752 35.586C20.0305 35.5651 19.0857 35.5432 18.1409 35.5204C17.3907 35.4999 16.6377 35.474 15.8902 35.4466C13.8963 35.3742 12.3439 36.4032 11.6018 38.27C11.4309 38.7354 11.3466 39.2283 11.3531 39.7241C11.3531 39.9974 11.3012 40.0397 11.021 40.0302C10.1546 40.0001 9.28908 39.9728 8.42449 39.9482C8.06644 39.9386 8.03501 39.9236 8.05278 39.5614C8.18123 36.749 9.43713 34.5952 11.8546 33.1385C13.0783 32.4049 14.4946 32.0572 15.9189 32.1409C16.2277 32.1668 16.5352 32.1409 16.844 32.1532C16.9192 32.1438 16.9955 32.1542 17.0654 32.1832Z" fill="#51B1F3"/>
<path d="M14.0016 8.16683C13.5396 7.66877 13.2213 7.05482 13.0805 6.39027C13.0813 6.29821 13.0708 6.20641 13.0491 6.11695C13.0272 6.00899 13.0299 5.89693 13.004 5.78897C12.9604 5.42226 12.971 5.05113 13.0354 4.6875C13.0498 4.652 13.0498 4.61231 13.0354 4.57681L13.1283 4.15726C13.2554 3.99737 13.265 3.78965 13.3606 3.61063C13.4809 3.37148 13.6025 3.13369 13.7296 2.89727C14.6042 1.64001 15.8068 0.87472 17.2827 0.526241C17.4731 0.460772 17.6731 0.427518 17.8745 0.427846C17.9428 0.375916 18.0316 0.427846 18.1013 0.385482H18.2476C18.6138 0.347906 18.9828 0.347906 19.349 0.385482L19.4994 0.393682C19.569 0.434679 19.6551 0.381382 19.7235 0.431946C20.2578 0.552206 20.8072 0.617802 21.3087 0.861054C21.6394 1.07014 22.0016 1.2314 22.3159 1.47055C22.8162 1.83704 23.2479 2.28904 23.5909 2.80571C24.0419 3.37831 24.2305 4.04657 24.2906 4.75856C24.3275 4.99079 24.3275 5.22739 24.2906 5.45962C24.1266 7.06263 23.2875 8.24063 21.9947 9.11251C21.2638 9.61637 20.426 9.94382 19.5472 10.0691C19.375 10.0924 19.2001 10.0978 19.0279 10.1279C18.6571 10.1648 18.2835 10.1648 17.9127 10.1279C17.3855 10.1062 16.8659 9.99384 16.3767 9.7958C15.9302 9.60422 15.4949 9.3875 15.073 9.14667C15.0074 9.10568 14.9254 9.08518 14.883 9.01001C14.565 8.75534 14.2701 8.4732 14.0016 8.16683Z" fill="#F68CDB"/>
<path d="M21.776 23.3373C21.2294 23.8375 20.6295 24.2802 20.0514 24.7462C18.2748 26.1812 16.4946 27.612 14.7108 29.0387C13.4508 30.0518 12.1912 31.0658 10.9322 32.0807C10.8184 32.1774 10.6864 32.2503 10.5441 32.2953C10.4798 32.32 10.4103 32.3281 10.3421 32.3189C10.2739 32.3097 10.2091 32.2835 10.1537 32.2426C10.0982 32.2018 10.054 32.1476 10.025 32.0852C9.99605 32.0227 9.98326 31.954 9.98785 31.8853C9.99137 31.7224 10.0267 31.5618 10.0917 31.4125C10.6383 29.9721 11.1804 28.5308 11.7179 27.0886C11.7495 26.9596 11.8305 26.8481 11.9434 26.7784C13.433 26.2317 14.9267 25.6919 16.419 25.1494C17.7309 24.6725 19.0415 24.1928 20.3575 23.7268C20.721 23.5997 21.0818 23.4685 21.4412 23.3277C21.5323 23.278 21.6312 23.2442 21.7337 23.228C21.8403 23.217 21.8662 23.2635 21.776 23.3373Z" fill="#51B1F3"/>
<path d="M17.8555 20.0821C18.096 20.0821 18.3365 20.0821 18.577 20.0917C19.1168 20.1081 19.4366 20.3308 19.6074 20.8351C19.8302 21.4952 20.0338 22.1634 20.2552 22.8235C20.3071 22.9765 20.2484 23.0093 20.1185 23.038C19.2877 23.228 18.4581 23.4234 17.6286 23.6175L12.7431 24.764C12.6802 24.7791 12.6064 24.846 12.5517 24.775C12.4971 24.7039 12.5777 24.6602 12.5996 24.6041C13.0888 23.3496 13.5849 22.0965 14.152 20.8734C14.4103 20.3185 14.7943 19.9782 15.4516 20.0233C15.8616 20.052 16.2894 20.0425 16.7075 20.0493C17.015 20.0712 17.3225 20.0493 17.63 20.0602C17.7057 20.0462 17.7839 20.0538 17.8555 20.0821Z" fill="#51B1F3"/>
</svg>
