<svg width="20" height="20" viewBox="0 0 20 20" fill="none" xmlns="http://www.w3.org/2000/svg">
<path d="M15.6479 6.90045H12.6594V8.67374H15.6479C16.5366 8.67374 17.2262 9.1277 17.2262 9.51841V17.3818C17.2262 17.7725 16.5366 18.2264 15.6479 18.2264H4.35151C3.4628 18.2264 2.77329 17.7725 2.77329 17.3818V9.51871C2.77329 9.12799 3.4628 8.67403 4.35151 8.67403H7.3395V6.90075H4.35151C2.47212 6.90075 1 8.05072 1 9.51871V17.382C1 18.8503 2.47212 20 4.35151 20H15.6482C17.5273 20 18.9997 18.85 18.9997 17.382V9.51871C18.9994 8.05043 17.5273 6.90045 15.6479 6.90045Z" fill="#018294"/>
<path d="M7.37571 4.41991C7.60269 4.41991 7.82937 4.33332 8.00256 4.16013L9.11264 3.05005V6.90045V8.67373V12.0708C9.11264 12.5605 9.50956 12.9574 9.99928 12.9574C10.489 12.9574 10.8859 12.5605 10.8859 12.0708V8.67373V6.90045V2.99006L12.056 4.16013C12.2292 4.33332 12.4562 4.41991 12.6829 4.41991C12.9095 4.41991 13.1365 4.33332 13.3097 4.16013C13.6561 3.81404 13.6561 3.2525 13.3097 2.90642L10.6625 0.259195C10.4893 0.0860043 10.2626 0 10.0359 0C10.0336 0 10.0315 0 10.0291 0C10.0268 0 10.0247 0 10.0223 0C9.79565 0 9.56897 0.0860043 9.39578 0.259195L6.74856 2.90642C6.40217 3.2525 6.40217 3.81404 6.74856 4.16013C6.92204 4.33332 7.14873 4.41991 7.37571 4.41991Z" fill="#018294"/>
</svg>
