<svg xmlns="http://www.w3.org/2000/svg" viewBox="0 0 533.5 544.3" width="20" height="20">
  <path fill="#4285F4" d="M533.5 278.4c0-18.6-1.5-36.5-4.4-53.9H272v101.9h146.9c-6.3 34-25.3 62.8-54.3 82v68.3h87.7c51.3-47.3 81.2-116.8 81.2-198.3z"></path>
  <path fill="#34A853" d="M272 544.3c73.7 0 135.7-24.4 180.9-66.4l-87.7-68.3c-24.3 16.3-55.2 26-93.2 26-71.6 0-132.3-48.4-154.1-113.2H30.1v70.8c45.1 89.2 137.4 150.1 241.9 150.1z"></path>
  <path fill="#FBBC05" d="M117.9 323.1c-10.7-31.7-10.7-65.9 0-97.6V154.7H30.1c-37.8 74.8-37.8 162.1 0 236.9l87.8-68.5z"></path>
  <path fill="#EA4335" d="M272 107.7c39.9 0 75.7 13.7 104 40.6l78.1-78.1C405.6 25.7 347.6 0 272 0 167.6 0 75.3 60.9 30.1 150.1l87.8 68.5c21.8-64.8 82.5-113.2 154.1-113.2z"></path>
</svg>
