<svg width="374" height="58" viewBox="0 0 374 58" fill="none" xmlns="http://www.w3.org/2000/svg">
<path d="M2.25 46L2.25 11.0909L17.3182 11.0909C19.9091 11.0909 22.1761 11.6023 24.1193 12.625C26.0625 13.6477 27.5739 15.0852 28.6534 16.9375C29.733 18.7898 30.2727 20.9545 30.2727 23.4318C30.2727 25.9318 29.7159 28.0966 28.6023 29.9261C27.5 31.7557 25.9489 33.1648 23.9489 34.1534C21.9602 35.142 19.6364 35.6364 16.9773 35.6364H7.97727L7.97727 28.2727L15.0682 28.2727C16.1818 28.2727 17.1307 28.0795 17.9148 27.6932C18.7102 27.2955 19.3182 26.733 19.7386 26.0057C20.1705 25.2784 20.3864 24.4205 20.3864 23.4318C20.3864 22.4318 20.1705 21.5795 19.7386 20.875C19.3182 20.1591 18.7102 19.6136 17.9148 19.2386C17.1307 18.8523 16.1818 18.6591 15.0682 18.6591H11.7273L11.7273 46H2.25Z" fill="#7CAB42"/>
<path d="M42.8011 46.3409C40.9375 46.3409 39.2216 45.8523 37.6534 44.875C36.0966 43.8977 34.8466 42.4148 33.9034 40.4261C32.9716 38.4375 32.5057 35.9318 32.5057 32.9091C32.5057 29.75 32.9943 27.1818 33.9716 25.2045C34.9602 23.2273 36.233 21.7784 37.7898 20.858C39.358 19.9375 41.0057 19.4773 42.733 19.4773C44.0284 19.4773 45.1648 19.7045 46.142 20.1591C47.1193 20.6023 47.9375 21.1989 48.5966 21.9489C49.2557 22.6875 49.7557 23.5 50.0966 24.3864H50.233L50.233 11.0909H59.642L59.642 46H50.3011V41.7045H50.0966C49.733 42.5909 49.2102 43.3864 48.5284 44.0909C47.858 44.7841 47.0398 45.3352 46.0739 45.7443C45.1193 46.142 44.0284 46.3409 42.8011 46.3409ZM46.2784 39.1136C47.142 39.1136 47.8807 38.8636 48.4943 38.3636C49.1193 37.8523 49.5966 37.1364 49.9261 36.2159C50.267 35.2841 50.4375 34.1818 50.4375 32.9091C50.4375 31.6136 50.267 30.5057 49.9261 29.5852C49.5966 28.6534 49.1193 27.9432 48.4943 27.4545C47.8807 26.9545 47.142 26.7045 46.2784 26.7045C45.4148 26.7045 44.6761 26.9545 44.0625 27.4545C43.4602 27.9432 42.9943 28.6534 42.6648 29.5852C42.3466 30.5057 42.1875 31.6136 42.1875 32.9091C42.1875 34.2045 42.3466 35.3182 42.6648 36.25C42.9943 37.1705 43.4602 37.8807 44.0625 38.3807C44.6761 38.8693 45.4148 39.1136 46.2784 39.1136Z" fill="#1E8ECE"/>
<path d="M75.8352 11.0909L82.2273 11.0909L93.3409 38.2273H93.75L104.864 11.0909L111.256 11.0909V46H106.244V20.7386H105.92L95.625 45.9489L91.4659 45.9489L81.1705 20.7216H80.8466V46H75.8352L75.8352 11.0909ZM126.124 46.5795C124.464 46.5795 122.964 46.2727 121.624 45.6591C120.283 45.0341 119.22 44.1307 118.436 42.9489C117.663 41.767 117.277 40.3182 117.277 38.6023C117.277 37.125 117.561 35.9091 118.129 34.9545C118.697 34 119.464 33.2443 120.43 32.6875C121.396 32.1307 122.476 31.7102 123.669 31.4261C124.862 31.142 126.078 30.9261 127.317 30.7784C128.885 30.5966 130.158 30.4489 131.135 30.3352C132.112 30.2102 132.822 30.0114 133.266 29.7386C133.709 29.4659 133.93 29.0227 133.93 28.4091V28.2898C133.93 26.8011 133.51 25.6477 132.669 24.8295C131.839 24.0114 130.601 23.6023 128.953 23.6023C127.237 23.6023 125.885 23.983 124.896 24.7443C123.919 25.4943 123.243 26.3295 122.868 27.25L118.078 26.1591C118.646 24.5682 119.476 23.2841 120.567 22.3068C121.669 21.3182 122.936 20.6023 124.368 20.1591C125.8 19.7045 127.305 19.4773 128.885 19.4773C129.93 19.4773 131.038 19.6023 132.209 19.8523C133.391 20.0909 134.493 20.5341 135.516 21.1818C136.55 21.8295 137.396 22.7557 138.055 23.9602C138.714 25.1534 139.044 26.7045 139.044 28.6136V46L134.067 46V42.4205H133.862C133.533 43.0795 133.038 43.7273 132.379 44.3636C131.72 45 130.874 45.5284 129.839 45.9489C128.805 46.3693 127.567 46.5795 126.124 46.5795ZM127.232 42.4886C128.641 42.4886 129.845 42.2102 130.845 41.6534C131.857 41.0966 132.624 40.3693 133.146 39.4716C133.68 38.5625 133.947 37.5909 133.947 36.5568V33.1818C133.766 33.3636 133.413 33.5341 132.891 33.6932C132.379 33.8409 131.794 33.9716 131.135 34.0852C130.476 34.1875 129.834 34.2841 129.209 34.375C128.584 34.4545 128.061 34.5227 127.641 34.5795C126.652 34.7045 125.749 34.9148 124.93 35.2102C124.124 35.5057 123.476 35.9318 122.987 36.4886C122.51 37.0341 122.271 37.7614 122.271 38.6705C122.271 39.9318 122.737 40.8864 123.669 41.5341C124.601 42.1705 125.788 42.4886 127.232 42.4886ZM150.929 30.4545V46H145.832V19.8182L150.724 19.8182V24.0795H151.048C151.651 22.6932 152.594 21.5795 153.878 20.7386C155.173 19.8977 156.804 19.4773 158.77 19.4773C160.554 19.4773 162.116 19.8523 163.457 20.6023C164.798 21.3409 165.838 22.4432 166.577 23.9091C167.315 25.375 167.685 27.1875 167.685 29.3466V46H162.588V29.9602C162.588 28.0625 162.094 26.5795 161.105 25.5114C160.116 24.4318 158.759 23.892 157.031 23.892C155.849 23.892 154.798 24.1477 153.878 24.6591C152.969 25.1705 152.247 25.9205 151.713 26.9091C151.19 27.8864 150.929 29.0682 150.929 30.4545ZM182.139 46.5795C180.48 46.5795 178.98 46.2727 177.639 45.6591C176.298 45.0341 175.236 44.1307 174.452 42.9489C173.679 41.767 173.293 40.3182 173.293 38.6023C173.293 37.125 173.577 35.9091 174.145 34.9545C174.713 34 175.48 33.2443 176.446 32.6875C177.412 32.1307 178.491 31.7102 179.685 31.4261C180.878 31.142 182.094 30.9261 183.332 30.7784C184.901 30.5966 186.173 30.4489 187.151 30.3352C188.128 30.2102 188.838 30.0114 189.281 29.7386C189.724 29.4659 189.946 29.0227 189.946 28.4091V28.2898C189.946 26.8011 189.526 25.6477 188.685 24.8295C187.855 24.0114 186.616 23.6023 184.969 23.6023C183.253 23.6023 181.901 23.983 180.912 24.7443C179.935 25.4943 179.259 26.3295 178.884 27.25L174.094 26.1591C174.662 24.5682 175.491 23.2841 176.582 22.3068C177.685 21.3182 178.952 20.6023 180.384 20.1591C181.815 19.7045 183.321 19.4773 184.901 19.4773C185.946 19.4773 187.054 19.6023 188.224 19.8523C189.406 20.0909 190.509 20.5341 191.531 21.1818C192.565 21.8295 193.412 22.7557 194.071 23.9602C194.73 25.1534 195.06 26.7045 195.06 28.6136V46H190.082V42.4205H189.878C189.548 43.0795 189.054 43.7273 188.395 44.3636C187.736 45 186.889 45.5284 185.855 45.9489C184.821 46.3693 183.582 46.5795 182.139 46.5795ZM183.247 42.4886C184.656 42.4886 185.861 42.2102 186.861 41.6534C187.872 41.0966 188.639 40.3693 189.162 39.4716C189.696 38.5625 189.963 37.5909 189.963 36.5568V33.1818C189.781 33.3636 189.429 33.5341 188.906 33.6932C188.395 33.8409 187.81 33.9716 187.151 34.0852C186.491 34.1875 185.849 34.2841 185.224 34.375C184.599 34.4545 184.077 34.5227 183.656 34.5795C182.668 34.7045 181.764 34.9148 180.946 35.2102C180.139 35.5057 179.491 35.9318 179.003 36.4886C178.526 37.0341 178.287 37.7614 178.287 38.6705C178.287 39.9318 178.753 40.8864 179.685 41.5341C180.616 42.1705 181.804 42.4886 183.247 42.4886ZM212.825 56.3636C210.746 56.3636 208.956 56.0909 207.456 55.5455C205.967 55 204.751 54.2784 203.808 53.3807C202.865 52.483 202.161 51.5 201.695 50.4318L206.075 48.625C206.382 49.125 206.791 49.6534 207.303 50.2102C207.825 50.7784 208.53 51.2614 209.416 51.6591C210.314 52.0568 211.467 52.2557 212.876 52.2557C214.808 52.2557 216.405 51.7841 217.666 50.8409C218.928 49.9091 219.558 48.4205 219.558 46.375V41.2273H219.234C218.928 41.7841 218.484 42.4034 217.905 43.0852C217.337 43.767 216.553 44.358 215.553 44.858C214.553 45.358 213.251 45.608 211.649 45.608C209.581 45.608 207.717 45.125 206.058 44.1591C204.411 43.1818 203.104 41.7443 202.138 39.8466C201.183 37.9375 200.706 35.5909 200.706 32.8068C200.706 30.0227 201.178 27.6364 202.121 25.6477C203.075 23.6591 204.382 22.1364 206.041 21.0795C207.7 20.0114 209.581 19.4773 211.683 19.4773C213.308 19.4773 214.621 19.75 215.621 20.2955C216.621 20.8295 217.399 21.4545 217.956 22.1705C218.524 22.8864 218.962 23.517 219.268 24.0625H219.643V19.8182H224.638V46.5795C224.638 48.8295 224.115 50.6761 223.07 52.1193C222.024 53.5625 220.609 54.6307 218.825 55.3239C217.053 56.017 215.053 56.3636 212.825 56.3636ZM212.774 41.3807C214.24 41.3807 215.479 41.0398 216.49 40.358C217.513 39.6648 218.286 38.6761 218.808 37.392C219.342 36.0966 219.609 34.5455 219.609 32.7386C219.609 30.9773 219.348 29.4261 218.825 28.0852C218.303 26.7443 217.536 25.6989 216.524 24.9489C215.513 24.1875 214.263 23.8068 212.774 23.8068C211.24 23.8068 209.962 24.2045 208.939 25C207.916 25.7841 207.143 26.8523 206.621 28.2045C206.109 29.5568 205.854 31.0682 205.854 32.7386C205.854 34.4545 206.115 35.9602 206.638 37.2557C207.161 38.5511 207.933 39.5625 208.956 40.2898C209.99 41.017 211.263 41.3807 212.774 41.3807ZM242.757 46.5284C240.178 46.5284 237.956 45.9773 236.092 44.875C234.24 43.7614 232.808 42.1989 231.797 40.1875C230.797 38.1648 230.297 35.7955 230.297 33.0795C230.297 30.3977 230.797 28.0341 231.797 25.9886C232.808 23.9432 234.217 22.3466 236.024 21.1989C237.842 20.0511 239.967 19.4773 242.399 19.4773C243.876 19.4773 245.308 19.7216 246.695 20.2102C248.081 20.6989 249.325 21.4659 250.428 22.5114C251.53 23.5568 252.399 24.9148 253.036 26.5852C253.672 28.2443 253.99 30.2614 253.99 32.6364V34.4432H233.178V30.625L248.996 30.625C248.996 29.2841 248.723 28.0966 248.178 27.0625C247.632 26.017 246.865 25.1932 245.876 24.5909C244.899 23.9886 243.751 23.6875 242.433 23.6875C241.001 23.6875 239.751 24.0398 238.683 24.7443C237.626 25.4375 236.808 26.3466 236.229 27.4716C235.661 28.5852 235.376 29.7955 235.376 31.1023V34.0852C235.376 35.8352 235.683 37.3239 236.297 38.5511C236.922 39.7784 237.791 40.7159 238.905 41.3636C240.018 42 241.32 42.3182 242.808 42.3182C243.774 42.3182 244.655 42.1818 245.45 41.9091C246.246 41.625 246.933 41.2045 247.513 40.6477C248.092 40.0909 248.536 39.4034 248.842 38.5852L253.666 39.4545C253.28 40.875 252.587 42.1193 251.587 43.1875C250.598 44.2443 249.354 45.0682 247.854 45.6591C246.365 46.2386 244.666 46.5284 242.757 46.5284ZM259.645 46V19.8182L264.537 19.8182V24.0795H264.861C265.406 22.6364 266.298 21.5114 267.537 20.7045C268.776 19.8864 270.259 19.4773 271.986 19.4773C273.736 19.4773 275.202 19.8864 276.384 20.7045C277.577 21.5227 278.457 22.6477 279.026 24.0795H279.298C279.923 22.6818 280.918 21.5682 282.281 20.7386C283.645 19.8977 285.27 19.4773 287.156 19.4773C289.531 19.4773 291.469 20.2216 292.969 21.7102C294.48 23.1989 295.236 25.4432 295.236 28.4432V46H290.139V28.9205C290.139 27.1477 289.656 25.8636 288.69 25.0682C287.724 24.2727 286.571 23.875 285.23 23.875C283.571 23.875 282.281 24.3864 281.361 25.4091C280.44 26.4205 279.98 27.7216 279.98 29.3125V46H274.901V28.5966C274.901 27.1761 274.457 26.0341 273.571 25.1705C272.685 24.3068 271.531 23.875 270.111 23.875C269.145 23.875 268.253 24.1307 267.435 24.642C266.628 25.142 265.974 25.8409 265.474 26.7386C264.986 27.6364 264.741 28.6761 264.741 29.858V46H259.645ZM313.351 46.5284C310.771 46.5284 308.55 45.9773 306.686 44.875C304.834 43.7614 303.402 42.1989 302.391 40.1875C301.391 38.1648 300.891 35.7955 300.891 33.0795C300.891 30.3977 301.391 28.0341 302.391 25.9886C303.402 23.9432 304.811 22.3466 306.618 21.1989C308.436 20.0511 310.561 19.4773 312.993 19.4773C314.47 19.4773 315.902 19.7216 317.288 20.2102C318.675 20.6989 319.919 21.4659 321.021 22.5114C322.124 23.5568 322.993 24.9148 323.629 26.5852C324.266 28.2443 324.584 30.2614 324.584 32.6364V34.4432L303.771 34.4432V30.625L319.589 30.625C319.589 29.2841 319.317 28.0966 318.771 27.0625C318.226 26.017 317.459 25.1932 316.47 24.5909C315.493 23.9886 314.345 23.6875 313.027 23.6875C311.595 23.6875 310.345 24.0398 309.277 24.7443C308.22 25.4375 307.402 26.3466 306.822 27.4716C306.254 28.5852 305.97 29.7955 305.97 31.1023V34.0852C305.97 35.8352 306.277 37.3239 306.891 38.5511C307.516 39.7784 308.385 40.7159 309.499 41.3636C310.612 42 311.913 42.3182 313.402 42.3182C314.368 42.3182 315.249 42.1818 316.044 41.9091C316.839 41.625 317.527 41.2045 318.107 40.6477C318.686 40.0909 319.129 39.4034 319.436 38.5852L324.26 39.4545C323.874 40.875 323.18 42.1193 322.18 43.1875C321.192 44.2443 319.947 45.0682 318.447 45.6591C316.959 46.2386 315.26 46.5284 313.351 46.5284ZM335.335 30.4545V46H330.239V19.8182H335.131V24.0795H335.455C336.057 22.6932 337 21.5795 338.284 20.7386C339.58 19.8977 341.21 19.4773 343.176 19.4773C344.96 19.4773 346.523 19.8523 347.864 20.6023C349.205 21.3409 350.244 22.4432 350.983 23.9091C351.722 25.375 352.091 27.1875 352.091 29.3466V46H346.994V29.9602C346.994 28.0625 346.5 26.5795 345.511 25.5114C344.523 24.4318 343.165 23.892 341.438 23.892C340.256 23.892 339.205 24.1477 338.284 24.6591C337.375 25.1705 336.653 25.9205 336.119 26.9091C335.597 27.8864 335.335 29.0682 335.335 30.4545ZM371.148 19.8182V23.9091L356.847 23.9091V19.8182L371.148 19.8182ZM360.682 13.5455L365.778 13.5455V38.3125C365.778 39.3011 365.926 40.0455 366.222 40.5455C366.517 41.0341 366.898 41.3693 367.364 41.5511C367.841 41.7216 368.358 41.8068 368.915 41.8068C369.324 41.8068 369.682 41.7784 369.989 41.7216C370.295 41.6648 370.534 41.6193 370.705 41.5852L371.625 45.7955C371.33 45.9091 370.909 46.0227 370.364 46.1364C369.818 46.2614 369.136 46.3295 368.318 46.3409C366.977 46.3636 365.727 46.125 364.568 45.625C363.409 45.125 362.472 44.3523 361.756 43.3068C361.04 42.2614 360.682 40.9489 360.682 39.3693V13.5455Z" fill="#1E8ECE"/>
</svg>
